  0
SECTION
  2
HEADER
  9
$ACADVER
  1
AC1024
  9
$ACADMAINTVER
 70
6
  9
$DWGCODEPAGE
  3
ANSI_1252
  9
$LASTSAVEDBY
  1
ezdxf
  9
$INSBASE
 10
0.0
 20
0.0
 30
0.0
  9
$EXTMIN
 10
1e+20
 20
1e+20
 30
1e+20
  9
$EXTMAX
 10
-1e+20
 20
-1e+20
 30
-1e+20
  9
$LIMMIN
 10
0.0
 20
0.0
  9
$LIMMAX
 10
420.0
 20
297.0
  9
$ORTHOMODE
 70
0
  9
$REGENMODE
 70
1
  9
$FILLMODE
 70
1
  9
$QTEXTMODE
 70
0
  9
$MIRRTEXT
 70
1
  9
$LTSCALE
 40
1.0
  9
$ATTMODE
 70
1
  9
$TEXTSIZE
 40
2.5
  9
$TRACEWID
 40
1.0
  9
$TEXTSTYLE
  7
Standard
  9
$CLAYER
  8
0
  9
$CELTYPE
  6
ByLayer
  9
$CECOLOR
 62
256
  9
$CELTSCALE
 40
1.0
  9
$DISPSILH
 70
0
  9
$DIMSCALE
 40
1.0
  9
$DIMASZ
 40
2.5
  9
$DIMEXO
 40
0.625
  9
$DIMDLI
 40
3.75
  9
$DIMRND
 40
0.0
  9
$DIMDLE
 40
0.0
  9
$DIMEXE
 40
1.25
  9
$DIMTP
 40
0.0
  9
$DIMTM
 40
0.0
  9
$DIMTXT
 40
2.5
  9
$DIMCEN
 40
2.5
  9
$DIMTSZ
 40
0.0
  9
$DIMTOL
 70
0
  9
$DIMLIM
 70
0
  9
$DIMTIH
 70
0
  9
$DIMTOH
 70
0
  9
$DIMSE1
 70
0
  9
$DIMSE2
 70
0
  9
$DIMTAD
 70
1
  9
$DIMZIN
 70
8
  9
$DIMBLK
  1

  9
$DIMASO
 70
1
  9
$DIMSHO
 70
1
  9
$DIMPOST
  1

  9
$DIMAPOST
  1

  9
$DIMALT
 70
0
  9
$DIMALTD
 70
3
  9
$DIMALTF
 40
0.03937007874
  9
$DIMLFAC
 40
1.0
  9
$DIMTOFL
 70
1
  9
$DIMTVP
 40
0.0
  9
$DIMTIX
 70
0
  9
$DIMSOXD
 70
0
  9
$DIMSAH
 70
0
  9
$DIMBLK1
  1

  9
$DIMBLK2
  1

  9
$DIMSTYLE
  2
ISO-25
  9
$DIMCLRD
 70
0
  9
$DIMCLRE
 70
0
  9
$DIMCLRT
 70
0
  9
$DIMTFAC
 40
1.0
  9
$DIMGAP
 40
0.625
  9
$DIMJUST
 70
0
  9
$DIMSD1
 70
0
  9
$DIMSD2
 70
0
  9
$DIMTOLJ
 70
0
  9
$DIMTZIN
 70
8
  9
$DIMALTZ
 70
0
  9
$DIMALTTZ
 70
0
  9
$DIMUPT
 70
0
  9
$DIMDEC
 70
2
  9
$DIMTDEC
 70
2
  9
$DIMALTU
 70
2
  9
$DIMALTTD
 70
3
  9
$DIMTXSTY
  7
Standard
  9
$DIMAUNIT
 70
0
  9
$DIMADEC
 70
0
  9
$DIMALTRND
 40
0.0
  9
$DIMAZIN
 70
0
  9
$DIMDSEP
 70
44
  9
$DIMATFIT
 70
3
  9
$DIMFRAC
 70
0
  9
$DIMLDRBLK
  1

  9
$DIMLUNIT
 70
2
  9
$DIMLWD
 70
-2
  9
$DIMLWE
 70
-2
  9
$DIMTMOVE
 70
0
  9
$DIMFXL
 40
1.0
  9
$DIMFXLON
 70
0
  9
$DIMJOGANG
 40
0.785398163397
  9
$DIMTFILL
 70
0
  9
$DIMTFILLCLR
 70
0
  9
$DIMARCSYM
 70
0
  9
$DIMLTYPE
  6

  9
$DIMLTEX1
  6

  9
$DIMLTEX2
  6

  9
$DIMTXTDIRECTION
 70
0
  9
$LUNITS
 70
2
  9
$LUPREC
 70
4
  9
$SKETCHINC
 40
1.0
  9
$FILLETRAD
 40
10.0
  9
$AUNITS
 70
0
  9
$AUPREC
 70
2
  9
$MENU
  1
.
  9
$ELEVATION
 40
0.0
  9
$PELEVATION
 40
0.0
  9
$THICKNESS
 40
0.0
  9
$LIMCHECK
 70
0
  9
$CHAMFERA
 40
0.0
  9
$CHAMFERB
 40
0.0
  9
$CHAMFERC
 40
0.0
  9
$CHAMFERD
 40
0.0
  9
$SKPOLY
 70
0
  9
$TDCREATE
 40
2460526.5608449075
  9
$TDUCREATE
 40
2458532.153996898
  9
$TDUPDATE
 40
2460526.5608449075
  9
$TDUUPDATE
 40
2458532.1544311
  9
$TDINDWG
 40
0.0
  9
$TDUSRTIMER
 40
0.0
  9
$USRTIMER
 70
1
  9
$ANGBASE
 50
0.0
  9
$ANGDIR
 70
0
  9
$PDMODE
 70
0
  9
$PDSIZE
 40
0.0
  9
$PLINEWID
 40
0.0
  9
$SPLFRAME
 70
0
  9
$SPLINETYPE
 70
6
  9
$SPLINESEGS
 70
8
  9
$HANDSEED
  5
33
  9
$SURFTAB1
 70
6
  9
$SURFTAB2
 70
6
  9
$SURFTYPE
 70
6
  9
$SURFU
 70
6
  9
$SURFV
 70
6
  9
$UCSBASE
  2

  9
$UCSNAME
  2

  9
$UCSORG
 10
0.0
 20
0.0
 30
0.0
  9
$UCSXDIR
 10
1.0
 20
0.0
 30
0.0
  9
$UCSYDIR
 10
0.0
 20
1.0
 30
0.0
  9
$UCSORTHOREF
  2

  9
$UCSORTHOVIEW
 70
0
  9
$UCSORGTOP
 10
0.0
 20
0.0
 30
0.0
  9
$UCSORGBOTTOM
 10
0.0
 20
0.0
 30
0.0
  9
$UCSORGLEFT
 10
0.0
 20
0.0
 30
0.0
  9
$UCSORGRIGHT
 10
0.0
 20
0.0
 30
0.0
  9
$UCSORGFRONT
 10
0.0
 20
0.0
 30
0.0
  9
$UCSORGBACK
 10
0.0
 20
0.0
 30
0.0
  9
$PUCSBASE
  2

  9
$PUCSNAME
  2

  9
$PUCSORG
 10
0.0
 20
0.0
 30
0.0
  9
$PUCSXDIR
 10
1.0
 20
0.0
 30
0.0
  9
$PUCSYDIR
 10
0.0
 20
1.0
 30
0.0
  9
$PUCSORTHOREF
  2

  9
$PUCSORTHOVIEW
 70
0
  9
$PUCSORGTOP
 10
0.0
 20
0.0
 30
0.0
  9
$PUCSORGBOTTOM
 10
0.0
 20
0.0
 30
0.0
  9
$PUCSORGLEFT
 10
0.0
 20
0.0
 30
0.0
  9
$PUCSORGRIGHT
 10
0.0
 20
0.0
 30
0.0
  9
$PUCSORGFRONT
 10
0.0
 20
0.0
 30
0.0
  9
$PUCSORGBACK
 10
0.0
 20
0.0
 30
0.0
  9
$USERI1
 70
0
  9
$USERI2
 70
0
  9
$USERI3
 70
0
  9
$USERI4
 70
0
  9
$USERI5
 70
0
  9
$USERR1
 40
0.0
  9
$USERR2
 40
0.0
  9
$USERR3
 40
0.0
  9
$USERR4
 40
0.0
  9
$USERR5
 40
0.0
  9
$WORLDVIEW
 70
1
  9
$SHADEDGE
 70
3
  9
$SHADEDIF
 70
70
  9
$TILEMODE
 70
1
  9
$MAXACTVP
 70
64
  9
$PINSBASE
 10
0.0
 20
0.0
 30
0.0
  9
$PLIMCHECK
 70
0
  9
$PEXTMIN
 10
1e+20
 20
1e+20
 30
1e+20
  9
$PEXTMAX
 10
-1e+20
 20
-1e+20
 30
-1e+20
  9
$PLIMMIN
 10
0.0
 20
0.0
  9
$PLIMMAX
 10
420.0
 20
297.0
  9
$UNITMODE
 70
0
  9
$VISRETAIN
 70
1
  9
$PLINEGEN
 70
0
  9
$PSLTSCALE
 70
1
  9
$TREEDEPTH
 70
3020
  9
$CMLSTYLE
  2
Standard
  9
$CMLJUST
 70
0
  9
$CMLSCALE
 40
20.0
  9
$PROXYGRAPHICS
 70
1
  9
$MEASUREMENT
 70
1
  9
$CELWEIGHT
370
-1
  9
$ENDCAPS
280
0
  9
$JOINSTYLE
280
0
  9
$LWDISPLAY
290
0
  9
$INSUNITS
 70
6
  9
$HYPERLINKBASE
  1

  9
$STYLESHEET
  1

  9
$XEDIT
290
1
  9
$CEPSNTYPE
380
0
  9
$PSTYLEMODE
290
1
  9
$FINGERPRINTGUID
  2
{3F89B88A-977D-451E-81B8-6BA3D2B17E98}
  9
$VERSIONGUID
  2
{786E4989-2B69-42ED-9761-9622D08269C2}
  9
$EXTNAMES
290
1
  9
$PSVPSCALE
 40
0.0
  9
$OLESTARTUP
290
0
  9
$SORTENTS
280
127
  9
$INDEXCTL
280
0
  9
$HIDETEXT
280
1
  9
$XCLIPFRAME
280
1
  9
$HALOGAP
280
0
  9
$OBSCOLOR
 70
257
  9
$OBSLTYPE
280
0
  9
$INTERSECTIONDISPLAY
280
0
  9
$INTERSECTIONCOLOR
 70
257
  9
$DIMASSOC
280
2
  9
$PROJECTNAME
  1

  9
$CAMERADISPLAY
290
0
  9
$LENSLENGTH
 40
50.0
  9
$CAMERAHEIGHT
 40
0.0
  9
$STEPSPERSEC
 40
24.0
  9
$STEPSIZE
 40
100.0
  9
$3DDWFPREC
 40
2.0
  9
$PSOLWIDTH
 40
0.005
  9
$PSOLHEIGHT
 40
0.08
  9
$LOFTANG1
 40
1.570796326795
  9
$LOFTANG2
 40
1.570796326795
  9
$LOFTMAG1
 40
0.0
  9
$LOFTMAG2
 40
0.0
  9
$LOFTPARAM
 70
7
  9
$LOFTNORMALS
280
1
  9
$LATITUDE
 40
37.795
  9
$LONGITUDE
 40
-122.394
  9
$NORTHDIRECTION
 40
0.0
  9
$TIMEZONE
 70
-8000
  9
$LIGHTGLYPHDISPLAY
280
1
  9
$TILEMODELIGHTSYNCH
280
1
  9
$CMATERIAL
347
20
  9
$SOLIDHIST
280
0
  9
$SHOWHIST
280
1
  9
$DWFFRAME
280
2
  9
$DGNFRAME
280
2
  9
$REALWORLDSCALE
290
1
  9
$INTERFERECOLOR
 62
256
  9
$CSHADOW
280
0
  9
$SHADOWPLANELOCATION
 40
0.0
  0
ENDSEC
  0
SECTION
  2
CLASSES
  0
CLASS
  1
ACDBDICTIONARYWDFLT
  2
AcDbDictionaryWithDefault
  3
ObjectDBX Classes
 90
0
 91
0
280
0
281
0
  0
CLASS
  1
SUN
  2
AcDbSun
  3
SCENEOE
 90
1153
 91
0
280
0
281
0
  0
CLASS
  1
VISUALSTYLE
  2
AcDbVisualStyle
  3
ObjectDBX Classes
 90
4095
 91
0
280
0
281
0
  0
CLASS
  1
MATERIAL
  2
AcDbMaterial
  3
ObjectDBX Classes
 90
1153
 91
0
280
0
281
0
  0
CLASS
  1
SCALE
  2
AcDbScale
  3
ObjectDBX Classes
 90
1153
 91
0
280
0
281
0
  0
CLASS
  1
TABLESTYLE
  2
AcDbTableStyle
  3
ObjectDBX Classes
 90
4095
 91
0
280
0
281
0
  0
CLASS
  1
MLEADERSTYLE
  2
AcDbMLeaderStyle
  3
ACDB_MLEADERSTYLE_CLASS
 90
4095
 91
0
280
0
281
0
  0
CLASS
  1
DICTIONARYVAR
  2
AcDbDictionaryVar
  3
ObjectDBX Classes
 90
0
 91
0
280
0
281
0
  0
CLASS
  1
CELLSTYLEMAP
  2
AcDbCellStyleMap
  3
ObjectDBX Classes
 90
1152
 91
0
280
0
281
0
  0
CLASS
  1
MENTALRAYRENDERSETTINGS
  2
AcDbMentalRayRenderSettings
  3
SCENEOE
 90
1024
 91
0
280
0
281
0
  0
CLASS
  1
ACDBDETAILVIEWSTYLE
  2
AcDbDetailViewStyle
  3
ObjectDBX Classes
 90
1025
 91
0
280
0
281
0
  0
CLASS
  1
ACDBSECTIONVIEWSTYLE
  2
AcDbSectionViewStyle
  3
ObjectDBX Classes
 90
1025
 91
0
280
0
281
0
  0
CLASS
  1
RASTERVARIABLES
  2
AcDbRasterVariables
  3
ISM
 90
0
 91
0
280
0
281
0
  0
CLASS
  1
ACDBPLACEHOLDER
  2
AcDbPlaceHolder
  3
ObjectDBX Classes
 90
0
 91
0
280
0
281
0
  0
CLASS
  1
LAYOUT
  2
AcDbLayout
  3
ObjectDBX Classes
 90
0
 91
0
280
0
281
0
  0
ENDSEC
  0
SECTION
  2
TABLES
  0
TABLE
  2
VPORT
  5
8
330
0
100
AcDbSymbolTable
 70
1
  0
VPORT
  5
23
330
8
100
AcDbSymbolTableRecord
100
AcDbViewportTableRecord
  2
*Active
 70
0
 10
0.0
 20
0.0
 11
1.0
 21
1.0
 12
0.0
 22
0.0
 13
0.0
 23
0.0
 14
0.5
 24
0.5
 15
0.5
 25
0.5
 16
0.0
 26
0.0
 36
1.0
 17
0.0
 27
0.0
 37
0.0
 40
1000.0
 41
1.34
 42
50.0
 43
0.0
 44
0.0
 50
0.0
 51
0.0
 71
0
 72
1000
 73
1
 74
3
 75
0
 76
0
 77
0
 78
0
281
0
 65
0
146
0.0
  0
ENDTAB
  0
TABLE
  2
LTYPE
  5
2
330
0
100
AcDbSymbolTable
 70
3
  0
LTYPE
  5
24
330
2
100
AcDbSymbolTableRecord
100
AcDbLinetypeTableRecord
  2
ByBlock
 70
0
  3

 72
65
 73
0
 40
0.0
  0
LTYPE
  5
25
330
2
100
AcDbSymbolTableRecord
100
AcDbLinetypeTableRecord
  2
ByLayer
 70
0
  3

 72
65
 73
0
 40
0.0
  0
LTYPE
  5
26
330
2
100
AcDbSymbolTableRecord
100
AcDbLinetypeTableRecord
  2
Continuous
 70
0
  3

 72
65
 73
0
 40
0.0
  0
ENDTAB
  0
TABLE
  2
LAYER
  5
1
330
0
100
AcDbSymbolTable
 70
2
  0
LAYER
  5
27
330
1
100
AcDbSymbolTableRecord
100
AcDbLayerTableRecord
  2
0
 70
0
 62
7
  6
Continuous
370
-3
390
13
347
21
  0
LAYER
  5
28
330
1
100
AcDbSymbolTableRecord
100
AcDbLayerTableRecord
  2
Defpoints
 70
0
 62
7
  6
Continuous
290
0
370
-3
390
13
347
21
  0
ENDTAB
  0
TABLE
  2
STYLE
  5
5
330
0
100
AcDbSymbolTable
 70
1
  0
STYLE
  5
29
330
5
100
AcDbSymbolTableRecord
100
AcDbTextStyleTableRecord
  2
Standard
 70
0
 40
0.0
 41
1.0
 50
0.0
 71
0
 42
2.5
  3
txt
  4

  0
ENDTAB
  0
TABLE
  2
VIEW
  5
7
330
0
100
AcDbSymbolTable
 70
0
  0
ENDTAB
  0
TABLE
  2
UCS
  5
6
330
0
100
AcDbSymbolTable
 70
0
  0
ENDTAB
  0
TABLE
  2
APPID
  5
3
330
0
100
AcDbSymbolTable
 70
3
  0
APPID
  5
2A
330
3
100
AcDbSymbolTableRecord
100
AcDbRegAppTableRecord
  2
ACAD
 70
0
  0
APPID
  5
30
330
3
100
AcDbSymbolTableRecord
100
AcDbRegAppTableRecord
  2
HATCHBACKGROUNDCOLOR
 70
0
  0
APPID
  5
31
330
3
100
AcDbSymbolTableRecord
100
AcDbRegAppTableRecord
  2
EZDXF
 70
0
  0
ENDTAB
  0
TABLE
  2
DIMSTYLE
  5
4
330
0
100
AcDbSymbolTable
 70
1
100
AcDbDimStyleTable
  0
DIMSTYLE
105
2B
330
4
100
AcDbSymbolTableRecord
100
AcDbDimStyleTableRecord
  2
Standard
 70
0
 40
1.0
 41
2.5
 42
0.625
 43
3.75
 44
1.25
 45
0.0
 46
0.0
 47
0.0
 48
0.0
 49
2.5
140
2.5
141
2.5
142
0.0
143
0.03937007874
144
1.0
145
0.0
146
1.0
147
0.625
148
0.0
 69
0
 70
0
 71
0
 72
0
 73
0
 74
0
 75
0
 76
0
 77
1
 78
8
 79
3
170
0
171
3
172
1
173
0
174
0
175
0
176
0
177
0
178
0
179
2
271
2
272
2
273
2
274
3
275
0
276
0
277
2
278
44
279
0
280
0
281
0
282
0
283
0
284
8
285
0
286
0
288
0
289
3
290
0
371
-2
372
-2
  0
ENDTAB
  0
TABLE
  2
BLOCK_RECORD
  5
9
330
0
100
AcDbSymbolTable
 70
2
  0
BLOCK_RECORD
  5
17
330
9
100
AcDbSymbolTableRecord
100
AcDbBlockTableRecord
  2
*Model_Space
340
1A
 70
0
280
1
281
0
  0
BLOCK_RECORD
  5
1B
330
9
100
AcDbSymbolTableRecord
100
AcDbBlockTableRecord
  2
*Paper_Space
340
1E
 70
0
280
1
281
0
  0
ENDTAB
  0
ENDSEC
  0
SECTION
  2
BLOCKS
  0
BLOCK
  5
18
330
17
100
AcDbEntity
  8
0
100
AcDbBlockBegin
  2
*Model_Space
 70
0
 10
0.0
 20
0.0
 30
0.0
  3
*Model_Space
  1

  0
ENDBLK
  5
19
330
17
100
AcDbEntity
  8
0
100
AcDbBlockEnd
  0
BLOCK
  5
1C
330
1B
100
AcDbEntity
  8
0
100
AcDbBlockBegin
  2
*Paper_Space
 70
0
 10
0.0
 20
0.0
 30
0.0
  3
*Paper_Space
  1

  0
ENDBLK
  5
1D
330
1B
100
AcDbEntity
  8
0
100
AcDbBlockEnd
  0
ENDSEC
  0
SECTION
  2
ENTITIES
  0
LWPOLYLINE
  5
2F
330
17
100
AcDbEntity
  8
0
100
AcDbPolyline
 90
401
 70
1
 10
0.0
 20
0.004036888090127038
 10
0.0009112284894919149
 20
0.004036888090127038
 10
0.0009112284894919149
 20
0.00451306451888828
 10
0.0018224569789838298
 20
0.00451306451888828
 10
0.0018224569789838298
 20
0.004922075471083548
 10
0.0027336854684757448
 20
0.004922075471083548
 10
0.0027336854684757448
 20
0.005270173229589755
 10
0.0036449139579676597
 20
0.005270173229589755
 10
0.0036449139579676597
 20
0.005567722872315427
 10
0.004556142447459575
 20
0.005567722872315427
 10
0.004556142447459575
 20
0.005805198072016231
 10
0.0054673709369514895
 20
0.005805198072016231
 10
0.0054673709369514895
 20
0.005994529829655158
 10
0.0063785994264434044
 20
0.005994529829655158
 10
0.0063785994264434044
 20
0.0061305234298923384
 10
0.007289827915935319
 20
0.0061305234298923384
 10
0.007289827915935319
 20
0.006263924979927823
 10
0.008201056405427235
 20
0.006263924979927823
 10
0.008201056405427235
 20
0.006345121563844421
 10
0.00911228489491915
 20
0.006345121563844421
 10
0.00911228489491915
 20
0.006386542004109999
 10
0.010023513384411063
 20
0.006386542004109999
 10
0.010023513384411063
 20
0.006408244950794756
 10
0.010934741873902979
 20
0.006408244950794756
 10
0.010934741873902979
 20
0.006400760802226462
 10
0.011845970363394895
 20
0.006400760802226462
 10
0.011845970363394895
 20
0.006367992778926096
 10
0.012757198852886809
 20
0.006367992778926096
 10
0.012757198852886809
 20
0.006306183449563383
 10
0.013668427342378723
 20
0.006306183449563383
 10
0.013668427342378723
 20
0.006228498329358889
 10
0.014579655831870639
 20
0.006228498329358889
 10
0.014579655831870639
 20
0.006139305105882865
 10
0.015490884321362555
 20
0.006139305105882865
 10
0.015490884321362555
 20
0.006022539135222664
 10
0.01640211281085447
 20
0.006022539135222664
 10
0.01640211281085447
 20
0.0058808636052800805
 10
0.017313341300346383
 20
0.0058808636052800805
 10
0.017313341300346383
 20
0.005738648276933752
 10
0.0182245697898383
 20
0.005738648276933752
 10
0.0182245697898383
 20
0.005596021636971519
 10
0.019135798279330214
 20
0.005596021636971519
 10
0.019135798279330214
 20
0.005429059714783832
 10
0.020047026768822127
 20
0.005429059714783832
 10
0.020047026768822127
 20
0.005261326792425281
 10
0.020958255258314042
 20
0.005261326792425281
 10
0.020958255258314042
 20
0.005071607763541733
 10
0.021869483747805958
 20
0.005071607763541733
 10
0.021869483747805958
 20
0.004892171932623453
 10
0.022780712237297874
 20
0.004892171932623453
 10
0.022780712237297874
 20
0.004724076534879971
 10
0.02369194072678979
 20
0.004724076534879971
 10
0.02369194072678979
 20
0.00452521010101034
 10
0.024603169216281702
 20
0.00452521010101034
 10
0.024603169216281702
 20
0.004344980404224238
 10
0.025514397705773618
 20
0.004344980404224238
 10
0.025514397705773618
 20
0.004167595591794883
 10
0.026425626195265534
 20
0.004167595591794883
 10
0.026425626195265534
 20
0.004006530464581288
 10
0.027336854684757446
 20
0.004006530464581288
 10
0.027336854684757446
 20
0.0038383220495163016
 10
0.02824808317424936
 20
0.0038383220495163016
 10
0.02824808317424936
 20
0.0037026179325685355
 10
0.029159311663741277
 20
0.0037026179325685355
 10
0.029159311663741277
 20
0.003565615976409009
 10
0.030070540153233193
 20
0.003565615976409009
 10
0.030070540153233193
 20
0.0034505441389484325
 10
0.03098176864272511
 20
0.0034505441389484325
 10
0.03098176864272511
 20
0.0033643576594399047
 10
0.03189299713221702
 20
0.0033643576594399047
 10
0.03189299713221702
 20
0.0032772460804859774
 10
0.03280422562170894
 20
0.0032772460804859774
 10
0.03280422562170894
 20
0.003227124204671344
 10
0.03371545411120085
 20
0.003227124204671344
 10
0.03371545411120085
 20
0.0031743772956953
 10
0.034626682600692765
 20
0.0031743772956953
 10
0.034626682600692765
 20
0.003146946655498908
 10
0.035537911090184685
 20
0.003146946655498908
 10
0.035537911090184685
 20
0.0031364327083377224
 10
0.0364491395796766
 20
0.0031364327083377224
 10
0.0364491395796766
 20
0.0031126085282906844
 10
0.03736036806916851
 20
0.0031126085282906844
 10
0.03736036806916851
 20
0.0031223908197249737
 10
0.03827159655866043
 20
0.0031223908197249737
 10
0.03827159655866043
 20
0.0031401307707543138
 10
0.03918282504815234
 20
0.0031401307707543138
 10
0.03918282504815234
 20
0.003164811921879039
 10
0.04009405353764425
 20
0.003164811921879039
 10
0.04009405353764425
 20
0.003183786255983057
 10
0.04100528202713617
 20
0.003183786255983057
 10
0.04100528202713617
 20
0.003228770560246497
 10
0.041916510516628085
 20
0.003228770560246497
 10
0.041916510516628085
 20
0.0032657819409076445
 10
0.042827739006120004
 20
0.0032657819409076445
 10
0.042827739006120004
 20
0.0032952802818536652
 10
0.043738967495611916
 20
0.0032952802818536652
 10
0.043738967495611916
 20
0.003294498912048192
 10
0.04465019598510383
 20
0.003294498912048192
 10
0.04465019598510383
 20
0.003329418932345956
 10
0.04556142447459575
 20
0.003329418932345956
 10
0.04556142447459575
 20
0.0033288391823825007
 10
0.04647265296408766
 20
0.0033288391823825007
 10
0.04647265296408766
 20
0.003322269736150827
 10
0.04738388145357958
 20
0.003322269736150827
 10
0.04738388145357958
 20
0.003306832004394229
 10
0.04829510994307149
 20
0.003306832004394229
 10
0.04829510994307149
 20
0.0032580886341848432
 10
0.049206338432563404
 20
0.0032580886341848432
 10
0.049206338432563404
 20
0.003200490832078205
 10
0.05011756692205532
 20
0.003200490832078205
 10
0.05011756692205532
 20
0.0031044071123934006
 10
0.051028795411547236
 20
0.0031044071123934006
 10
0.051028795411547236
 20
0.003004680598461186
 10
0.05194002390103915
 20
0.003004680598461186
 10
0.05194002390103915
 20
0.0028090778298840873
 10
0.05285125239053107
 20
0.0028090778298840873
 10
0.05285125239053107
 20
0.0026269992915902277
 10
0.05376248088002298
 20
0.0026269992915902277
 10
0.05376248088002298
 20
0.0023965930498725
 10
0.05467370936951489
 20
0.0023965930498725
 10
0.05467370936951489
 20
0.002126222307697363
 10
0.05558493785900681
 20
0.002126222307697363
 10
0.05558493785900681
 20
0.0018751054074176217
 10
0.05649616634849872
 20
0.0018751054074176217
 10
0.05649616634849872
 20
0.0016107373153919275
 10
0.05740739483799064
 20
0.0016107373153919275
 10
0.05740739483799064
 20
0.0013989389442629761
 10
0.058318623327482555
 20
0.0013989389442629761
 10
0.058318623327482555
 20
0.0012519781163005614
 10
0.05922985181697447
 20
0.0012519781163005614
 10
0.05922985181697447
 20
0.001135935477350414
 10
0.060141080306466387
 20
0.001135935477350414
 10
0.060141080306466387
 20
0.0010035515201137634
 10
0.0610523087959583
 20
0.0010035515201137634
 10
0.0610523087959583
 20
0.0009047326111477101
 10
0.06196353728545022
 20
0.0009047326111477101
 10
0.06196353728545022
 20
0.0008156015729564841
 10
0.06287476577494212
 20
0.0008156015729564841
 10
0.06287476577494212
 20
0.0007507502867745869
 10
0.06378599426443404
 20
0.0007507502867745869
 10
0.06378599426443404
 20
0.000690691065595012
 10
0.06469722275392596
 20
0.000690691065595012
 10
0.06469722275392596
 20
0.000611259097253104
 10
0.06560845124341788
 20
0.000611259097253104
 10
0.06560845124341788
 20
0.0005613409561981087
 10
0.06651967973290979
 20
0.0005613409561981087
 10
0.06651967973290979
 20
0.000506780698231206
 10
0.0674309082224017
 20
0.000506780698231206
 10
0.0674309082224017
 20
0.0004662394494463399
 10
0.06834213671189363
 20
0.0004662394494463399
 10
0.06834213671189363
 20
0.0004262396791959228
 10
0.06925336520138553
 20
0.0004262396791959228
 10
0.06925336520138553
 20
0.0003942026444834212
 10
0.07016459369087745
 20
0.0003942026444834212
 10
0.07016459369087745
 20
0.0003569316242287034
 10
0.07107582218036937
 20
0.0003569316242287034
 10
0.07107582218036937
 20
0.0003345217065211061
 10
0.07198705066986127
 20
0.0003345217065211061
 10
0.07198705066986127
 20
0.00030863683779766955
 10
0.0728982791593532
 20
0.00030863683779766955
 10
0.0728982791593532
 20
0.0002882861223651004
 10
0.07380950764884511
 20
0.0002882861223651004
 10
0.07380950764884511
 20
0.00026712807555910937
 10
0.07472073613833702
 20
0.00026712807555910937
 10
0.07472073613833702
 20
0.0002500259135435742
 10
0.07563196462782894
 20
0.0002500259135435742
 10
0.07563196462782894
 20
0.0002312349679577404
 10
0.07654319311732086
 20
0.0002312349679577404
 10
0.07654319311732086
 20
0.00021848989857789806
 10
0.07745442160681276
 20
0.00021848989857789806
 10
0.07745442160681276
 20
0.0002068776058570798
 10
0.07836565009630468
 20
0.0002068776058570798
 10
0.07836565009630468
 20
0.0001897802527716827
 10
0.0792768785857966
 20
0.0001897802527716827
 10
0.0792768785857966
 20
0.00018273017070560667
 10
0.0801881070752885
 20
0.00018273017070560667
 10
0.0801881070752885
 20
0.0001707697511081492
 10
0.08109933556478043
 20
0.0001707697511081492
 10
0.08109933556478043
 20
0.00016404219666556736
 10
0.08201056405427234
 20
0.00016404219666556736
 10
0.08201056405427234
 20
0.00015386606704539626
 10
0.08292179254376426
 20
0.00015386606704539626
 10
0.08292179254376426
 20
0.00014810678902015066
 10
0.08383302103325617
 20
0.00014810678902015066
 10
0.08383302103325617
 20
0.00013975015816593655
 10
0.08474424952274809
 20
0.00013975015816593655
 10
0.08474424952274809
 20
0.000136007147007275
 10
0.08565547801224001
 20
0.000136007147007275
 10
0.08565547801224001
 20
0.00013136288529403068
 10
0.08656670650173191
 20
0.00013136288529403068
 10
0.08656670650173191
 20
0.0001252844024806397
 10
0.08747793499122383
 20
0.0001252844024806397
 10
0.08747793499122383
 20
0.00012353470021710984
 10
0.08838916348071575
 20
0.00012353470021710984
 10
0.08838916348071575
 20
0.00012142308497480143
 10
0.08930039197020766
 20
0.00012142308497480143
 10
0.08930039197020766
 20
0.00011841384933372639
 10
0.09021162045969958
 20
0.00011841384933372639
 10
0.09021162045969958
 20
0.000115960948954574
 10
0.0911228489491915
 20
0.000115960948954574
 10
0.0911228489491915
 20
-0.000115960948954574
 10
0.09021162045969958
 20
-0.000115960948954574
 10
0.09021162045969958
 20
-0.00011841384933372639
 10
0.08930039197020766
 20
-0.00011841384933372639
 10
0.08930039197020766
 20
-0.00012142308497480143
 10
0.08838916348071575
 20
-0.00012142308497480143
 10
0.08838916348071575
 20
-0.00012353470021710984
 10
0.08747793499122383
 20
-0.00012353470021710984
 10
0.08747793499122383
 20
-0.0001252844024806397
 10
0.08656670650173191
 20
-0.0001252844024806397
 10
0.08656670650173191
 20
-0.00013136288529403068
 10
0.08565547801224001
 20
-0.00013136288529403068
 10
0.08565547801224001
 20
-0.000136007147007275
 10
0.08474424952274809
 20
-0.000136007147007275
 10
0.08474424952274809
 20
-0.00013975015816593655
 10
0.08383302103325617
 20
-0.00013975015816593655
 10
0.08383302103325617
 20
-0.00014810678902015066
 10
0.08292179254376426
 20
-0.00014810678902015066
 10
0.08292179254376426
 20
-0.00015386606704539626
 10
0.08201056405427234
 20
-0.00015386606704539626
 10
0.08201056405427234
 20
-0.00016404219666556736
 10
0.08109933556478043
 20
-0.00016404219666556736
 10
0.08109933556478043
 20
-0.0001707697511081492
 10
0.0801881070752885
 20
-0.0001707697511081492
 10
0.0801881070752885
 20
-0.00018273017070560667
 10
0.0792768785857966
 20
-0.00018273017070560667
 10
0.0792768785857966
 20
-0.0001897802527716827
 10
0.07836565009630468
 20
-0.0001897802527716827
 10
0.07836565009630468
 20
-0.0002068776058570798
 10
0.07745442160681276
 20
-0.0002068776058570798
 10
0.07745442160681276
 20
-0.00021848989857789806
 10
0.07654319311732086
 20
-0.00021848989857789806
 10
0.07654319311732086
 20
-0.0002312349679577404
 10
0.07563196462782894
 20
-0.0002312349679577404
 10
0.07563196462782894
 20
-0.0002500259135435742
 10
0.07472073613833702
 20
-0.0002500259135435742
 10
0.07472073613833702
 20
-0.00026712807555910937
 10
0.07380950764884511
 20
-0.00026712807555910937
 10
0.07380950764884511
 20
-0.0002882861223651004
 10
0.0728982791593532
 20
-0.0002882861223651004
 10
0.0728982791593532
 20
-0.00030863683779766955
 10
0.07198705066986127
 20
-0.00030863683779766955
 10
0.07198705066986127
 20
-0.0003345217065211061
 10
0.07107582218036937
 20
-0.0003345217065211061
 10
0.07107582218036937
 20
-0.0003569316242287034
 10
0.07016459369087745
 20
-0.0003569316242287034
 10
0.07016459369087745
 20
-0.0003942026444834212
 10
0.06925336520138553
 20
-0.0003942026444834212
 10
0.06925336520138553
 20
-0.0004262396791959228
 10
0.06834213671189363
 20
-0.0004262396791959228
 10
0.06834213671189363
 20
-0.0004662394494463399
 10
0.0674309082224017
 20
-0.0004662394494463399
 10
0.0674309082224017
 20
-0.000506780698231206
 10
0.06651967973290979
 20
-0.000506780698231206
 10
0.06651967973290979
 20
-0.0005613409561981087
 10
0.06560845124341788
 20
-0.0005613409561981087
 10
0.06560845124341788
 20
-0.000611259097253104
 10
0.06469722275392596
 20
-0.000611259097253104
 10
0.06469722275392596
 20
-0.000690691065595012
 10
0.06378599426443404
 20
-0.000690691065595012
 10
0.06378599426443404
 20
-0.0007507502867745869
 10
0.06287476577494212
 20
-0.0007507502867745869
 10
0.06287476577494212
 20
-0.0008156015729564841
 10
0.06196353728545022
 20
-0.0008156015729564841
 10
0.06196353728545022
 20
-0.0009047326111477101
 10
0.0610523087959583
 20
-0.0009047326111477101
 10
0.0610523087959583
 20
-0.0010035515201137634
 10
0.060141080306466387
 20
-0.0010035515201137634
 10
0.060141080306466387
 20
-0.001135935477350414
 10
0.05922985181697447
 20
-0.001135935477350414
 10
0.05922985181697447
 20
-0.0012519781163005614
 10
0.058318623327482555
 20
-0.0012519781163005614
 10
0.058318623327482555
 20
-0.0013989389442629761
 10
0.05740739483799064
 20
-0.0013989389442629761
 10
0.05740739483799064
 20
-0.0016107373153919275
 10
0.05649616634849872
 20
-0.0016107373153919275
 10
0.05649616634849872
 20
-0.0018751054074176217
 10
0.05558493785900681
 20
-0.0018751054074176217
 10
0.05558493785900681
 20
-0.002126222307697363
 10
0.05467370936951489
 20
-0.002126222307697363
 10
0.05467370936951489
 20
-0.0023965930498725
 10
0.05376248088002298
 20
-0.0023965930498725
 10
0.05376248088002298
 20
-0.0026269992915902277
 10
0.05285125239053107
 20
-0.0026269992915902277
 10
0.05285125239053107
 20
-0.0028090778298840873
 10
0.05194002390103915
 20
-0.0028090778298840873
 10
0.05194002390103915
 20
-0.003004680598461186
 10
0.051028795411547236
 20
-0.003004680598461186
 10
0.051028795411547236
 20
-0.0031044071123934006
 10
0.05011756692205532
 20
-0.0031044071123934006
 10
0.05011756692205532
 20
-0.003200490832078205
 10
0.049206338432563404
 20
-0.003200490832078205
 10
0.049206338432563404
 20
-0.0032580886341848432
 10
0.04829510994307149
 20
-0.0032580886341848432
 10
0.04829510994307149
 20
-0.003306832004394229
 10
0.04738388145357958
 20
-0.003306832004394229
 10
0.04738388145357958
 20
-0.003322269736150827
 10
0.04647265296408766
 20
-0.003322269736150827
 10
0.04647265296408766
 20
-0.0033288391823825007
 10
0.04556142447459575
 20
-0.0033288391823825007
 10
0.04556142447459575
 20
-0.003329418932345956
 10
0.04465019598510383
 20
-0.003329418932345956
 10
0.04465019598510383
 20
-0.003294498912048192
 10
0.043738967495611916
 20
-0.003294498912048192
 10
0.043738967495611916
 20
-0.0032952802818536652
 10
0.042827739006120004
 20
-0.0032952802818536652
 10
0.042827739006120004
 20
-0.0032657819409076445
 10
0.041916510516628085
 20
-0.0032657819409076445
 10
0.041916510516628085
 20
-0.003228770560246497
 10
0.04100528202713617
 20
-0.003228770560246497
 10
0.04100528202713617
 20
-0.003183786255983057
 10
0.04009405353764425
 20
-0.003183786255983057
 10
0.04009405353764425
 20
-0.003164811921879039
 10
0.03918282504815234
 20
-0.003164811921879039
 10
0.03918282504815234
 20
-0.0031401307707543138
 10
0.03827159655866043
 20
-0.0031401307707543138
 10
0.03827159655866043
 20
-0.0031223908197249737
 10
0.03736036806916851
 20
-0.0031223908197249737
 10
0.03736036806916851
 20
-0.0031126085282906844
 10
0.0364491395796766
 20
-0.0031126085282906844
 10
0.0364491395796766
 20
-0.0031364327083377224
 10
0.035537911090184685
 20
-0.0031364327083377224
 10
0.035537911090184685
 20
-0.003146946655498908
 10
0.034626682600692765
 20
-0.003146946655498908
 10
0.034626682600692765
 20
-0.0031743772956953
 10
0.03371545411120085
 20
-0.0031743772956953
 10
0.03371545411120085
 20
-0.003227124204671344
 10
0.03280422562170894
 20
-0.003227124204671344
 10
0.03280422562170894
 20
-0.0032772460804859774
 10
0.03189299713221702
 20
-0.0032772460804859774
 10
0.03189299713221702
 20
-0.0033643576594399047
 10
0.03098176864272511
 20
-0.0033643576594399047
 10
0.03098176864272511
 20
-0.0034505441389484325
 10
0.030070540153233193
 20
-0.0034505441389484325
 10
0.030070540153233193
 20
-0.003565615976409009
 10
0.029159311663741277
 20
-0.003565615976409009
 10
0.029159311663741277
 20
-0.0037026179325685355
 10
0.02824808317424936
 20
-0.0037026179325685355
 10
0.02824808317424936
 20
-0.0038383220495163016
 10
0.027336854684757446
 20
-0.0038383220495163016
 10
0.027336854684757446
 20
-0.004006530464581288
 10
0.026425626195265534
 20
-0.004006530464581288
 10
0.026425626195265534
 20
-0.004167595591794883
 10
0.025514397705773618
 20
-0.004167595591794883
 10
0.025514397705773618
 20
-0.004344980404224238
 10
0.024603169216281702
 20
-0.004344980404224238
 10
0.024603169216281702
 20
-0.00452521010101034
 10
0.02369194072678979
 20
-0.00452521010101034
 10
0.02369194072678979
 20
-0.004724076534879971
 10
0.022780712237297874
 20
-0.004724076534879971
 10
0.022780712237297874
 20
-0.004892171932623453
 10
0.021869483747805958
 20
-0.004892171932623453
 10
0.021869483747805958
 20
-0.005071607763541733
 10
0.020958255258314042
 20
-0.005071607763541733
 10
0.020958255258314042
 20
-0.005261326792425281
 10
0.020047026768822127
 20
-0.005261326792425281
 10
0.020047026768822127
 20
-0.005429059714783832
 10
0.019135798279330214
 20
-0.005429059714783832
 10
0.019135798279330214
 20
-0.005596021636971519
 10
0.0182245697898383
 20
-0.005596021636971519
 10
0.0182245697898383
 20
-0.005738648276933752
 10
0.017313341300346383
 20
-0.005738648276933752
 10
0.017313341300346383
 20
-0.0058808636052800805
 10
0.01640211281085447
 20
-0.0058808636052800805
 10
0.01640211281085447
 20
-0.006022539135222664
 10
0.015490884321362555
 20
-0.006022539135222664
 10
0.015490884321362555
 20
-0.006139305105882865
 10
0.014579655831870639
 20
-0.006139305105882865
 10
0.014579655831870639
 20
-0.006228498329358889
 10
0.013668427342378723
 20
-0.006228498329358889
 10
0.013668427342378723
 20
-0.006306183449563383
 10
0.012757198852886809
 20
-0.006306183449563383
 10
0.012757198852886809
 20
-0.006367992778926096
 10
0.011845970363394895
 20
-0.006367992778926096
 10
0.011845970363394895
 20
-0.006400760802226462
 10
0.010934741873902979
 20
-0.006400760802226462
 10
0.010934741873902979
 20
-0.006408244950794756
 10
0.010023513384411063
 20
-0.006408244950794756
 10
0.010023513384411063
 20
-0.006386542004109999
 10
0.00911228489491915
 20
-0.006386542004109999
 10
0.00911228489491915
 20
-0.006345121563844421
 10
0.008201056405427235
 20
-0.006345121563844421
 10
0.008201056405427235
 20
-0.006263924979927823
 10
0.007289827915935319
 20
-0.006263924979927823
 10
0.007289827915935319
 20
-0.0061305234298923384
 10
0.0063785994264434044
 20
-0.0061305234298923384
 10
0.0063785994264434044
 20
-0.005994529829655158
 10
0.0054673709369514895
 20
-0.005994529829655158
 10
0.0054673709369514895
 20
-0.005805198072016231
 10
0.004556142447459575
 20
-0.005805198072016231
 10
0.004556142447459575
 20
-0.005567722872315427
 10
0.0036449139579676597
 20
-0.005567722872315427
 10
0.0036449139579676597
 20
-0.005270173229589755
 10
0.0027336854684757448
 20
-0.005270173229589755
 10
0.0027336854684757448
 20
-0.004922075471083548
 10
0.0018224569789838298
 20
-0.004922075471083548
 10
0.0018224569789838298
 20
-0.00451306451888828
 10
0.0009112284894919149
 20
-0.00451306451888828
 10
0.0009112284894919149
 20
-0.004036888090127038
 10
0.0
 20
-0.004036888090127038
 10
0.0
 20
0.004036888090127038
  0
ENDSEC
  0
SECTION
  2
OBJECTS
  0
DICTIONARY
  5
A
330
0
100
AcDbDictionary
280
0
281
1
  3
ACAD_COLOR
350
B
  3
ACAD_GROUP
350
C
  3
ACAD_LAYOUT
350
D
  3
ACAD_MATERIAL
350
E
  3
ACAD_MLEADERSTYLE
350
F
  3
ACAD_MLINESTYLE
350
10
  3
ACAD_PLOTSETTINGS
350
11
  3
ACAD_PLOTSTYLENAME
350
12
  3
ACAD_SCALELIST
350
14
  3
ACAD_TABLESTYLE
350
15
  3
ACAD_VISUALSTYLE
350
16
  3
EZDXF_META
350
2D
  0
DICTIONARY
  5
B
330
A
100
AcDbDictionary
280
0
281
1
  0
DICTIONARY
  5
C
330
A
100
AcDbDictionary
280
0
281
1
  0
DICTIONARY
  5
D
330
A
100
AcDbDictionary
280
0
281
1
  3
Model
350
1A
  3
Layout1
350
1E
  0
DICTIONARY
  5
E
330
A
100
AcDbDictionary
280
0
281
1
  3
ByBlock
350
1F
  3
ByLayer
350
20
  3
Global
350
21
  0
DICTIONARY
  5
F
330
A
100
AcDbDictionary
280
0
281
1
  3
Standard
350
2C
  0
DICTIONARY
  5
10
330
A
100
AcDbDictionary
280
0
281
1
  3
Standard
350
22
  0
DICTIONARY
  5
11
330
A
100
AcDbDictionary
280
0
281
1
  0
ACDBDICTIONARYWDFLT
  5
12
330
A
100
AcDbDictionary
280
0
281
1
  3
Normal
350
13
100
AcDbDictionaryWithDefault
340
13
  0
ACDBPLACEHOLDER
  5
13
330
12
  0
DICTIONARY
  5
14
330
A
100
AcDbDictionary
280
0
281
1
  0
DICTIONARY
  5
15
330
A
100
AcDbDictionary
280
0
281
1
  0
DICTIONARY
  5
16
330
A
100
AcDbDictionary
280
0
281
1
  0
LAYOUT
  5
1A
330
D
100
AcDbPlotSettings
  1

  2
Adobe PDF
  4
A3
  6

 40
7.5
 41
20.0
 42
7.5
 43
20.0
 44
420.0
 45
297.0
 46
0.0
 47
0.0
 48
0.0
 49
0.0
140
0.0
141
0.0
142
1.0
143
1.0
 70
1024
 72
1
 73
0
 74
5
  7

 75
16
 76
0
 77
2
 78
300
147
1.0
148
0.0
149
0.0
100
AcDbLayout
  1
Model
 70
1
 71
0
 10
0.0
 20
0.0
 11
420.0
 21
297.0
 12
0.0
 22
0.0
 32
0.0
 14
1e+20
 24
1e+20
 34
1e+20
 15
-1e+20
 25
-1e+20
 35
-1e+20
146
0.0
 13
0.0
 23
0.0
 33
0.0
 16
1.0
 26
0.0
 36
0.0
 17
0.0
 27
1.0
 37
0.0
 76
1
330
17
  0
LAYOUT
  5
1E
330
D
100
AcDbPlotSettings
  1

  2
Adobe PDF
  4
A3
  6

 40
7.5
 41
20.0
 42
7.5
 43
20.0
 44
420.0
 45
297.0
 46
0.0
 47
0.0
 48
0.0
 49
0.0
140
0.0
141
0.0
142
1.0
143
1.0
 70
0
 72
1
 73
0
 74
5
  7

 75
16
 76
0
 77
2
 78
300
147
1.0
148
0.0
149
0.0
100
AcDbLayout
  1
Layout1
 70
1
 71
1
 10
0.0
 20
0.0
 11
420.0
 21
297.0
 12
0.0
 22
0.0
 32
0.0
 14
1e+20
 24
1e+20
 34
1e+20
 15
-1e+20
 25
-1e+20
 35
-1e+20
146
0.0
 13
0.0
 23
0.0
 33
0.0
 16
1.0
 26
0.0
 36
0.0
 17
0.0
 27
1.0
 37
0.0
 76
1
330
1B
  0
MATERIAL
  5
1F
102
{ACAD_REACTORS
330
E
102
}
330
E
100
AcDbMaterial
  1
ByBlock
  2

 70
0
 40
1.0
 71
1
 41
1.0
 91
-1023410177
 42
1.0
 72
1
  3

 73
1
 74
1
 75
1
 44
0.5
 73
0
 45
1.0
 46
1.0
 77
1
  4

 78
1
 79
1
170
1
 48
1.0
171
1
  6

172
1
173
1
174
1
140
1.0
141
1.0
175
1
  7

176
1
177
1
178
1
143
1.0
179
1
  8

270
1
271
1
272
1
145
1.0
146
1.0
273
1
  9

274
1
275
1
276
1
 42
1.0
 72
1
  3

 73
1
 74
1
 75
1
 94
63
  0
MATERIAL
  5
20
102
{ACAD_REACTORS
330
E
102
}
330
E
100
AcDbMaterial
  1
ByLayer
  2

 70
0
 40
1.0
 71
1
 41
1.0
 91
-1023410177
 42
1.0
 72
1
  3

 73
1
 74
1
 75
1
 44
0.5
 73
0
 45
1.0
 46
1.0
 77
1
  4

 78
1
 79
1
170
1
 48
1.0
171
1
  6

172
1
173
1
174
1
140
1.0
141
1.0
175
1
  7

176
1
177
1
178
1
143
1.0
179
1
  8

270
1
271
1
272
1
145
1.0
146
1.0
273
1
  9

274
1
275
1
276
1
 42
1.0
 72
1
  3

 73
1
 74
1
 75
1
 94
63
  0
MATERIAL
  5
21
102
{ACAD_REACTORS
330
E
102
}
330
E
100
AcDbMaterial
  1
Global
  2

 70
0
 40
1.0
 71
1
 41
1.0
 91
-1023410177
 42
1.0
 72
1
  3

 73
1
 74
1
 75
1
 44
0.5
 73
0
 45
1.0
 46
1.0
 77
1
  4

 78
1
 79
1
170
1
 48
1.0
171
1
  6

172
1
173
1
174
1
140
1.0
141
1.0
175
1
  7

176
1
177
1
178
1
143
1.0
179
1
  8

270
1
271
1
272
1
145
1.0
146
1.0
273
1
  9

274
1
275
1
276
1
 42
1.0
 72
1
  3

 73
1
 74
1
 75
1
 94
63
  0
MLINESTYLE
  5
22
102
{ACAD_REACTORS
330
10
102
}
330
10
100
AcDbMlineStyle
  2
Standard
 70
0
  3

 62
256
 51
90.0
 52
90.0
 71
2
 49
0.5
 62
256
  6
BYLAYER
 49
-0.5
 62
256
  6
BYLAYER
  0
MLEADERSTYLE
  5
2C
102
{ACAD_REACTORS
330
F
102
}
330
F
100
AcDbMLeaderStyle
179
2
170
2
171
1
172
0
 90
2
 40
0.0
 41
0.0
173
1
 91
-1056964608
 92
-2
290
1
 42
2.0
291
1
 43
8.0
  3
Standard
 44
4.0
300

342
29
174
1
175
1
176
0
178
1
 93
-1056964608
 45
4.0
292
0
297
0
 46
4.0
 94
-1056964608
 47
1.0
 49
1.0
140
1.0
294
1
141
0.0
177
0
142
1.0
295
0
296
0
143
3.75
271
0
272
9
273
9
  0
DICTIONARY
  5
2D
330
A
100
AcDbDictionary
281
1
  3
CREATED_BY_EZDXF
350
2E
  3
WRITTEN_BY_EZDXF
350
32
  0
DICTIONARYVAR
  5
2E
330
2D
100
DictionaryVariables
280
0
  1
1.3.0 @ 2024-08-03T20:27:37.107284+00:00
  0
DICTIONARYVAR
  5
32
330
2D
100
DictionaryVariables
280
0
  1
1.3.0 @ 2024-08-03T20:27:37.115508+00:00
  0
ENDSEC
  0
EOF
